<?xml version="1.0" encoding="UTF-8"?>
<svg width="710px" height="256px" viewBox="0 0 710 256" version="1.1" xmlns="http://www.w3.org/2000/svg" xmlns:xlink="http://www.w3.org/1999/xlink">
    <title>RCL.design Logo</title>
    <desc>RCL monogram logo</desc>
    <g id="logo-full" stroke="none" stroke-width="1" fill="none" fill-rule="evenodd">
        <g id="large-logo" transform="translate(-16.000000, 6.000000)" stroke="#233941">
            <path d="M89.0911651,43 C111.424323,47.1989265 122.590902,58.8328538 122.590902,77.9017819 C122.590902,105.773546 104.060601,119.709429 67,119.709429 L140.239486,213.030955" id="Line" stroke-width="3" stroke-linecap="round"></path>
            <line x1="65" y1="60" x2="65" y2="189" id="Line" stroke-width="2" stroke-linecap="round"></line>
            <line x1="48" y1="82" x2="48" y2="165" id="Line" stroke-width="2" stroke-linecap="round"></line>
            <line x1="57" y1="69" x2="57" y2="179" id="Line" stroke-width="2" stroke-linecap="round"></line>
            <path d="M158.575012,212.287234 C191.124626,198.524366 213.975574,166.298648 213.990265,128.747677 C214.00983,78.6962529 173.451,38.137423 123.399576,38.1569877 C81.6725871,38.1733114 46.5211458,66.3875317 35.9714286,104.773479" id="Oval" stroke-width="3" transform="translate(124.980847, 125.222111) rotate(-135.000000) translate(-124.980847, -125.222111) "></path>
            <line x1="131" y1="198.514928" x2="213" y2="198.485072" id="Line" stroke-width="3" stroke-linecap="square"></line>
            <line x1="130.5" y1="26" x2="130.5" y2="198" id="Line" stroke-width="2" stroke-linecap="square"></line>
            <line x1="139.5" y1="26" x2="139.5" y2="198" id="Line" stroke-width="2" stroke-linecap="square"></line>
            <line x1="147.5" y1="26" x2="147.5" y2="198" id="Line" stroke-width="2" stroke-linecap="square"></line>
        </g>
        <circle id="Oval" fill="#233941" cx="497.5" cy="109" r="4"></circle>
        <circle id="Oval" fill="#233941" cx="225" cy="200" r="4"></circle>
        <ellipse id="Oval" stroke="#233941" stroke-width="3" cx="558.5" cy="167.25" rx="33.5" ry="33.25"></ellipse>
        <ellipse id="Oval" stroke="#233941" stroke-width="3" cx="279.875" cy="168.5" rx="32.875" ry="34.5"></ellipse>
        <path d="M342,167.5 C348.83045,167.5 373.663784,167.5 404.5,167.5 C404.5,148.308105 391.001539,134 372.5,134 C353.998461,134 340.5,149.308105 340.5,168.5 C340.5,187.691895 355,203.5 373.5,203.5 C384.833333,203.5 393.833333,199.833333 400.5,192.5" id="Oval" stroke="#233941" stroke-width="3"></path>
        <line x1="313.5" y1="101" x2="313.5" y2="205" id="Line" stroke="#233941" stroke-width="3"></line>
        <path d="M469.5,140.5 C454,130 423,131 423,152 C423,176 472.5,161.477421 472.5,187 C472.5,209 433,207 420,195" id="Line" stroke="#233941" stroke-width="3" stroke-linecap="square"></path>
        <line x1="497.5" y1="132.5" x2="497.5" y2="205" id="Line" stroke="#233941" stroke-width="3"></line>
        <path d="M593,132 C593,170 593,190.833333 593,194.5 C593,223 580,230.5 561,230.5 C548.333333,230.5 537.833333,226.833333 529.5,219.5" id="Line" stroke="#233941" stroke-width="3"></path>
        <line x1="628" y1="132" x2="628" y2="204.5" id="Line" stroke="#233941" stroke-width="3"></line>
        <path d="M628,162.5 C630,150.5 635.5,134.5 659.5,134.5 C678.31266,134.5 686.5,146.5 686.7,162.5 L686.7,204.5" id="Line" stroke="#233941" stroke-width="3"></path>
    </g>
</svg>
