<?xml version="1.0" encoding="UTF-8"?>
<svg width="35px" height="24px" viewBox="0 0 35 24" version="1.1" xmlns="http://www.w3.org/2000/svg" xmlns:xlink="http://www.w3.org/1999/xlink">
    <title>FCC_logo</title>
    <g id="FCC_logo" stroke="none" stroke-width="1" fill="none" fill-rule="evenodd">
        <g id="thumbnail" transform="translate(-239.000000, -577.000000)" fill-rule="nonzero">
            <g id="inner" transform="translate(239.000000, 577.000000)">
                <g id="b-link" transform="translate(28.000000, 0.000000)" fill="#333333">
                    <path d="M0.57,0.17 C0.45,0.29 0.33,0.46 0.33,0.62 C0.33,0.91 0.67,1.31 1.3,1.95 C3.93,4.48 5.25,7.57 5.24,11.3 C5.23,15.43 3.84,18.75 1.14,21.31 C0.57,21.82 0.34,22.22 0.34,22.56 C0.34,22.73 0.46,22.9 0.57,23.07 C0.68,23.19 0.91,23.3 1.08,23.3 C1.7,23.3 2.58,22.57 3.72,21.13 C5.94,18.41 6.94,15.4 7,11.31 C7.05,7.21 5.77,4.43 3.25,1.56 C2.35,0.53 1.59,2.22044605e-15 1.08,2.22044605e-15 C0.91,2.22044605e-15 0.73,0.06 0.57,0.17 L0.57,0.17 Z" id="b"></path>
                </g>
                <g id="b-link" transform="translate(28.000000, 0.000000)" fill="#000000" fill-opacity="0" stroke="#000000" stroke-opacity="0">
                    <path d="M0.57,0.17 C0.45,0.29 0.33,0.46 0.33,0.62 C0.33,0.91 0.67,1.31 1.3,1.95 C3.93,4.48 5.25,7.57 5.24,11.3 C5.23,15.43 3.84,18.75 1.14,21.31 C0.57,21.82 0.34,22.22 0.34,22.56 C0.34,22.73 0.46,22.9 0.57,23.07 C0.68,23.19 0.91,23.3 1.08,23.3 C1.7,23.3 2.58,22.57 3.72,21.13 C5.94,18.41 6.94,15.4 7,11.31 C7.05,7.21 5.77,4.43 3.25,1.56 C2.35,0.53 1.59,2.22044605e-15 1.08,2.22044605e-15 C0.91,2.22044605e-15 0.73,0.06 0.57,0.17 L0.57,0.17 Z" id="b"></path>
                </g>
                <g id="e-link" transform="translate(11.000000, 1.000000)" fill="#333333">
                    <path d="M9.66,11.04 C8.67,10.79 12.72,6.01 5.53,0.29 C5.53,0.29 6.47,3.29 1.72,9.98 C-3.04,16.66 3.83,20.64 3.83,20.64 C3.83,20.64 0.61,18.92 4.36,12.8 C5.03,11.69 5.91,10.69 7,8.42 C7,8.42 7.96,9.79 7.46,12.74 C6.71,17.21 10.73,15.93 10.79,15.99 C12.2,17.64 9.63,20.55 9.47,20.64 C9.31,20.73 16.81,16.14 11.48,9.22 C11.12,9.58 10.65,11.3 9.66,11.04 L9.66,11.04 Z" id="e"></path>
                </g>
                <g id="e-link" transform="translate(11.000000, 1.000000)" fill="#000000" fill-opacity="0" stroke="#000000" stroke-opacity="0">
                    <path d="M9.66,11.04 C8.67,10.79 12.72,6.01 5.53,0.29 C5.53,0.29 6.47,3.29 1.72,9.98 C-3.04,16.66 3.83,20.64 3.83,20.64 C3.83,20.64 0.61,18.92 4.36,12.8 C5.03,11.69 5.91,10.69 7,8.42 C7,8.42 7.96,9.79 7.46,12.74 C6.71,17.21 10.73,15.93 10.79,15.99 C12.2,17.64 9.63,20.55 9.47,20.64 C9.31,20.73 16.81,16.14 11.48,9.22 C11.12,9.58 10.65,11.3 9.66,11.04 L9.66,11.04 Z" id="e"></path>
                </g>
                <g id="f-link" fill="#333333">
                    <path d="M6.88,0.18 C7,0.29 7.11,0.46 7.11,0.63 C7.11,0.92 6.77,1.31 6.14,1.95 C3.52,4.48 2.2,7.57 2.21,11.31 C2.22,15.43 3.61,18.75 6.31,21.32 C6.87,21.82 7.11,22.22 7.11,22.56 C7.11,22.73 6.99,22.91 6.88,23.07 C6.77,23.19 6.54,23.31 6.37,23.31 C5.74,23.31 4.87,22.57 3.73,21.13 C1.51,18.41 0.51,15.41 0.45,11.31 C0.4,7.21 1.68,4.43 4.2,1.56 C5.1,0.54 5.86,-1.33226763e-15 6.37,-1.33226763e-15 C6.54,-1.33226763e-15 6.71,0.06 6.88,0.18 Z" id="f"></path>
                </g>
                <g id="f-link" fill="#000000" fill-opacity="0" stroke="#000000" stroke-opacity="0">
                    <path d="M6.88,0.18 C7,0.29 7.11,0.46 7.11,0.63 C7.11,0.92 6.77,1.31 6.14,1.95 C3.52,4.48 2.2,7.57 2.21,11.31 C2.22,15.43 3.61,18.75 6.31,21.32 C6.87,21.82 7.11,22.22 7.11,22.56 C7.11,22.73 6.99,22.91 6.88,23.07 C6.77,23.19 6.54,23.31 6.37,23.31 C5.74,23.31 4.87,22.57 3.73,21.13 C1.51,18.41 0.51,15.41 0.45,11.31 C0.4,7.21 1.68,4.43 4.2,1.56 C5.1,0.54 5.86,-1.33226763e-15 6.37,-1.33226763e-15 C6.54,-1.33226763e-15 6.71,0.06 6.88,0.18 Z" id="f"></path>
                </g>
            </g>
        </g>
    </g>
</svg>
