<?xml version="1.0" encoding="UTF-8" standalone="no"?>
<!DOCTYPE svg PUBLIC "-//W3C//DTD SVG 20010904//EN" "http://www.w3.org/TR/2001/REC-SVG-20010904/DTD/svg10.dtd">
<svg version="1.0" xmlns="http://www.w3.org/2000/svg" width="900.000000pt" height="546.000000pt" viewBox="0 0 900.000000 546.000000" preserveAspectRatio="xMidYMid meet">
<metadata>
Created by potrace 1.10, written by Peter Selinger 2001-2011
</metadata>
<g transform="translate(0.000000,546.000000) scale(0.100000,-0.100000)" fill="#000000" stroke="none">
<path d="M5853 5400 c-79 -28 -161 -89 -302 -224 -209 -201 -276 -235 -516 -266 -164 -20 -261 -52 -378 -121 -89 -53 -158 -121 -285 -280 -115 -144 -231 -256 -333 -324 -80 -53 -194 -105 -254 -116 -22 -4 -64 -12 -92 -18 -38 -7 -68 -7 -105 0 -29 6 -75 14 -103 19 -117 19 -200 57 -270 123 -35 33 -93 57 -136 57 -42 0 -128 40 -173 79 -15 13 -38 16 -129 14 -100 -2 -118 0 -201 29 -50 17 -103 37 -118 44 -40 20 -80 17 -135 -11 -47 -24 -50 -24 -108 -10 -101 24 -208 15 -325 -29 -25 -10 -54 -20 -65 -23 -11 -3 -39 -19 -63 -34 -79 -53 -88 -44 -147 136 -21 66 -42 127 -47 135 -4 8 -24 58 -44 110 -52 134 -108 253 -128 269 -14 12 -18 8 -35 -30 -10 -24 -26 -80 -35 -124 -9 -44 -21 -98 -27 -120 -6 -22 -15 -69 -19 -105 -16 -130 -44 -289 -59 -335 -28 -89 -54 -126 -134 -189 -27 -21 -73 -71 -102 -110 -50 -66 -103 -116 -123 -116 -21 0 -89 95 -138 194 -35 71 -93 120 -210 176 -60 29 -117 57 -127 62 -41 21 -226 77 -274 83 -61 8 -94 -5 -86 -34 3 -11 25 -43 50 -73 61 -71 141 -179 232 -313 156 -232 227 -312 329 -371 74 -43 148 -101 171 -133 26 -36 29 -124 6 -178 -29 -69 -18 -201 31 -388 15 -57 37 -95 55 -95 4 0 17 21 29 47 52 118 120 125 120 13 0 -45 36 -129 82 -195 16 -22 36 -51 46 -65 9 -14 76 -104 148 -200 72 -96 143 -194 157 -217 39 -62 152 -189 205 -229 45 -34 49 -35 117 -31 84 5 164 32 266 90 l74 42 3 48 c2 31 -5 70 -19 110 -61 172 -69 203 -69 272 0 38 5 88 11 110 6 22 14 110 20 195 10 172 23 287 33 297 4 4 22 7 41 6 24 -1 51 -14 93 -46 57 -44 213 -206 221 -230 2 -6 17 -29 32 -50 16 -22 31 -56 35 -76 24 -142 68 -200 219 -290 78 -46 89 -75 81 -206 -11 -180 -38 -393 -50 -414 -4 -6 -11 -32 -16 -59 -4 -26 -18 -78 -30 -117 -46 -149 -52 -172 -61 -225 -5 -30 -13 -98 -18 -150 -7 -85 -27 -155 -60 -217 -5 -10 -32 -65 -60 -123 -101 -211 -141 -270 -311 -455 -144 -158 -205 -242 -215 -297 -10 -56 21 -72 149 -76 175 -6 202 15 328 261 38 73 77 139 88 149 14 11 31 15 58 11 35 -5 40 -2 63 33 36 55 105 212 125 284 12 43 73 169 112 228 51 78 55 87 97 172 81 166 98 196 118 218 26 28 42 28 82 -3 57 -43 135 -226 135 -317 0 -24 7 -79 15 -123 8 -46 14 -145 15 -232 0 -167 5 -147 -90 -346 -43 -91 -38 -111 34 -125 30 -6 103 -10 162 -8 99 3 109 5 127 27 15 18 18 33 13 64 -3 22 -9 61 -12 86 l-6 45 51 37 c46 33 51 41 50 74 0 52 -24 171 -47 238 -10 28 -26 85 -51 180 -6 22 -15 112 -21 200 -13 208 -33 991 -28 1119 l3 100 47 24 c55 28 143 51 243 62 253 29 455 68 540 104 17 7 55 24 85 37 153 66 310 177 453 321 118 119 169 187 225 300 47 93 78 128 132 145 19 7 132 17 250 24 229 13 227 13 348 84 261 154 263 155 438 155 172 0 168 3 179 -140 21 -272 42 -376 87 -420 28 -29 82 -49 183 -69 33 -7 76 -17 96 -22 20 -5 77 -9 126 -9 80 0 98 4 167 34 57 25 94 49 141 95 71 70 145 174 145 205 0 48 -165 74 -260 41 -23 -8 -56 -15 -71 -15 -16 0 -37 -4 -47 -9 -137 -73 -194 -75 -225 -8 -14 28 -17 66 -17 185 0 132 2 152 19 174 32 40 82 50 221 45 313 -11 380 -42 661 -311 187 -179 323 -285 540 -419 l76 -47 192 0 c152 0 204 4 245 17 73 23 120 49 124 69 4 19 -70 99 -138 148 -66 48 -129 66 -235 66 -79 0 -95 3 -125 23 -19 13 -46 46 -60 73 -26 48 -67 83 -145 125 -135 72 -248 179 -500 473 -96 113 -186 208 -213 226 -47 32 -47 32 -147 26 -55 -3 -134 -13 -175 -22 -41 -8 -102 -19 -135 -24 -33 -4 -89 -13 -124 -20 -58 -11 -68 -11 -98 5 -34 18 -58 60 -84 145 -7 25 -28 60 -46 78 -51 51 -45 84 43 217 52 81 84 145 84 174 0 15 20 43 60 81 72 69 77 90 20 90 -61 0 -192 -21 -220 -36 -14 -7 -39 -25 -56 -41 -99 -91 -102 -93 -159 -93 -60 0 -91 22 -101 70 -3 14 -11 48 -19 75 -12 43 -27 158 -27 205 -1 39 -31 147 -50 172 -38 54 -126 97 -250 123 -92 19 -120 18 -185 -5z m177 -170 c20 0 71 -55 90 -97 16 -36 20 -67 20 -146 0 -140 16 -233 59 -346 36 -94 21 -91 -139 30 -64 48 -134 95 -155 104 -22 9 -53 23 -68 31 -16 8 -36 14 -44 14 -9 0 -34 8 -55 17 -30 13 -38 22 -38 43 0 34 37 134 75 200 26 45 97 121 124 132 37 15 94 26 109 22 8 -2 17 -4 22 -4z"/>
</g>
</svg>